HIERARCHY
ROOT hip
{
  OFFSET 0.00112043 5.09927 -9.65472
  CHANNELS 6 Xposition Yposition Zposition Zrotation Xrotation Yrotation
  JOINT abdomen
  {
    OFFSET 0 -1.186 -1.5018
    CHANNELS 3 Zrotation Xrotation Yrotation
    JOINT abdomen2
    {
      OFFSET 0 9.964 0.2134
      CHANNELS 3 Zrotation Xrotation Yrotation
      JOINT chest
      {
        OFFSET 0 13.134 -3.2573
        CHANNELS 3 Zrotation Xrotation Yrotation
        JOINT neck
        {
          OFFSET 0 20.686 -1.6905
          CHANNELS 3 Zrotation Xrotation Yrotation
          JOINT head
          {
            OFFSET 0 7.238 -0.1237
            CHANNELS 3 Zrotation Xrotation Yrotation
            End Site
            {
              OFFSET 0 0 0
            }
          }
        }
        JOINT lCollar
        {
          OFFSET 1.7069 20.075 5.0056
          CHANNELS 3 Zrotation Xrotation Yrotation
          JOINT lShldr
          {
            OFFSET 13.6458 -0.047 -4.849
            CHANNELS 3 Zrotation Xrotation Yrotation
            JOINT lForeArm
            {
              OFFSET 28.3255 -0.9759 2.2888
              CHANNELS 3 Zrotation Xrotation Yrotation
              JOINT lHand
              {
                OFFSET 22.1583 -0.53 10.8316
                CHANNELS 3 Zrotation Xrotation Yrotation
                JOINT lThumb1
                {
                  OFFSET 0.786 0.112 2.5817
                  CHANNELS 3 Zrotation Xrotation Yrotation
                  JOINT lThumb2
                  {
                    OFFSET 0.3601 -0.878 4.2331
                    CHANNELS 3 Zrotation Xrotation Yrotation
                    JOINT lThumb2_End
                    {
                      OFFSET 1.8127 -1.216 2.2227
                      CHANNELS 3 Zrotation Xrotation Yrotation
                      End Site
                      {
                        OFFSET 0.0181 -0.0122 0.0222
                      }
                    }
                  }
                }
                JOINT lCarpal1
                {
                  OFFSET 0.9571 1.114 1.7695
                  CHANNELS 3 Zrotation Xrotation Yrotation
                  JOINT lIndex1
                  {
                    OFFSET 4.1246 0.487 4.1451
                    CHANNELS 3 Zrotation Xrotation Yrotation
                    JOINT lIndex2
                    {
                      OFFSET 3.4052 -1.454 2.7682
                      CHANNELS 3 Zrotation Xrotation Yrotation
                      JOINT lIndex2_End
                      {
                        OFFSET 1.4531 -1.795 1.2713
                        CHANNELS 3 Zrotation Xrotation Yrotation
                        End Site
                        {
                          OFFSET 0.0145 -0.0179 0.0127
                        }
                      }
                    }
                  }
                  JOINT lMid1
                  {
                    OFFSET 5.6954 0.21 2.1184
                    CHANNELS 3 Zrotation Xrotation Yrotation
                    JOINT lMid2
                    {
                      OFFSET 3.9766 -1.54 2.3863
                      CHANNELS 3 Zrotation Xrotation Yrotation
                      JOINT lMid2_End
                      {
                        OFFSET 1.4042 -1.926 1.125
                        CHANNELS 3 Zrotation Xrotation Yrotation
                        End Site
                        {
                          OFFSET 0.014 -0.0193 0.0113
                        }
                      }
                    }
                  }
                }
                JOINT lCarpal2
                {
                  OFFSET 2.0956 0.66 -0.3894
                  CHANNELS 3 Zrotation Xrotation Yrotation
                  JOINT lRing1
                  {
                    OFFSET 5.0395 -0.09 2.4971
                    CHANNELS 3 Zrotation Xrotation Yrotation
                    JOINT lRing2
                    {
                      OFFSET 3.7921 -1.552 1.4806
                      CHANNELS 3 Zrotation Xrotation Yrotation
                      JOINT lRing2_End
                      {
                        OFFSET 1.4655 -1.808 0.9609
                        CHANNELS 3 Zrotation Xrotation Yrotation
                        End Site
                        {
                          OFFSET 0.0147 -0.0181 0.0096
                        }
                      }
                    }
                  }
                  JOINT lPinky1
                  {
                    OFFSET 4.9141 -1.269 0.3591
                    CHANNELS 3 Zrotation Xrotation Yrotation
                    JOINT lPinky2
                    {
                      OFFSET 3.1477 -1.685 0.8462
                      CHANNELS 3 Zrotation Xrotation Yrotation
                      JOINT lPinky2_End
                      {
                        OFFSET 0.8055 -1.585 0.7955
                        CHANNELS 3 Zrotation Xrotation Yrotation
                        End Site
                        {
                          OFFSET 0.0081 -0.0158 0.008
                        }
                      }
                    }
                  }
                }
              }
            }
          }
        }
        JOINT rCollar
        {
          OFFSET -1.7069 20.075 5.0056
          CHANNELS 3 Zrotation Xrotation Yrotation
          JOINT rShldr
          {
            OFFSET -13.6458 -0.047 -4.849
            CHANNELS 3 Zrotation Xrotation Yrotation
            JOINT rForeArm
            {
              OFFSET -28.3255 -0.9759 2.2888
              CHANNELS 3 Zrotation Xrotation Yrotation
              JOINT rHand
              {
                OFFSET -22.1583 -0.53 10.8316
                CHANNELS 3 Zrotation Xrotation Yrotation
                JOINT rThumb1
                {
                  OFFSET -0.786 0.112 2.5817
                  CHANNELS 3 Zrotation Xrotation Yrotation
                  JOINT rThumb2
                  {
                    OFFSET -0.3601 -0.878 4.2331
                    CHANNELS 3 Zrotation Xrotation Yrotation
                    JOINT rThumb2_End
                    {
                      OFFSET -1.8127 -1.216 2.2227
                      CHANNELS 3 Zrotation Xrotation Yrotation
                      End Site
                      {
                        OFFSET -0.0181 -0.0122 0.0222
                      }
                    }
                  }
                }
                JOINT rCarpal1
                {
                  OFFSET -0.9571 1.114 1.7695
                  CHANNELS 3 Zrotation Xrotation Yrotation
                  JOINT rIndex1
                  {
                    OFFSET -4.1246 0.487 4.1451
                    CHANNELS 3 Zrotation Xrotation Yrotation
                    JOINT rIndex2
                    {
                      OFFSET -3.4052 -1.454 2.7682
                      CHANNELS 3 Zrotation Xrotation Yrotation
                      JOINT rIndex2_End
                      {
                        OFFSET -1.4531 -1.795 1.2713
                        CHANNELS 3 Zrotation Xrotation Yrotation
                        End Site
                        {
                          OFFSET -0.0145 -0.018 0.0127
                        }
                      }
                    }
                  }
                  JOINT rMid1
                  {
                    OFFSET -5.6954 0.21 2.1184
                    CHANNELS 3 Zrotation Xrotation Yrotation
                    JOINT rMid2
                    {
                      OFFSET -3.9766 -1.54 2.3863
                      CHANNELS 3 Zrotation Xrotation Yrotation
                      JOINT rMid2_End
                      {
                        OFFSET -1.4042 -1.926 1.125
                        CHANNELS 3 Zrotation Xrotation Yrotation
                        End Site
                        {
                          OFFSET -0.014 -0.0193 0.0113
                        }
                      }
                    }
                  }
                }
                JOINT rCarpal2
                {
                  OFFSET -2.0956 0.66 -0.3894
                  CHANNELS 3 Zrotation Xrotation Yrotation
                  JOINT rRing1
                  {
                    OFFSET -5.0395 -0.09 2.4971
                    CHANNELS 3 Zrotation Xrotation Yrotation
                    JOINT rRing2
                    {
                      OFFSET -3.7921 -1.552 1.4806
                      CHANNELS 3 Zrotation Xrotation Yrotation
                      JOINT rRing2_End
                      {
                        OFFSET -1.4655 -1.808 0.9609
                        CHANNELS 3 Zrotation Xrotation Yrotation
                        End Site
                        {
                          OFFSET -0.0147 -0.0181 0.0096
                        }
                      }
                    }
                  }
                  JOINT rPinky1
                  {
                    OFFSET -4.9141 -1.269 0.3592
                    CHANNELS 3 Zrotation Xrotation Yrotation
                    JOINT rPinky2
                    {
                      OFFSET -3.1477 -1.685 0.8462
                      CHANNELS 3 Zrotation Xrotation Yrotation
                      JOINT rPinky2_End
                      {
                        OFFSET -0.8055 -1.585 0.7955
                        CHANNELS 3 Zrotation Xrotation Yrotation
                        End Site
                        {
                          OFFSET -0.0081 -0.0158 0.008
                        }
                      }
                    }
                  }
                }
              }
            }
          }
        }
      }
    }
  }
  JOINT lThigh
  {
    OFFSET 8.367 -8.2066 0.5982
    CHANNELS 3 Zrotation Xrotation Yrotation
    JOINT lShin
    {
      OFFSET 2.1923 -43.463 -0.4932
      CHANNELS 3 Zrotation Xrotation Yrotation
      JOINT lFoot
      {
        OFFSET 0.7333 -45.8593 -2.6451
        CHANNELS 3 Zrotation Xrotation Yrotation
        End Site
        {
          OFFSET 2.6618 -4.2699 12.3931
        }
      }
    }
  }
  JOINT rThigh
  {
    OFFSET -8.367 -8.2066 0.5982
    CHANNELS 3 Zrotation Xrotation Yrotation
    JOINT rShin
    {
      OFFSET -2.1923 -43.463 -0.4931
      CHANNELS 3 Zrotation Xrotation Yrotation
      JOINT rFoot
      {
        OFFSET -0.7333 -45.8593 -2.6451
        CHANNELS 3 Zrotation Xrotation Yrotation
        End Site
        {
          OFFSET -2.6618 -4.2699 12.3931
        }
      }
    }
  }
}
MOTION
Frames:	4
Frame Time:	0.0333333
0.000180026 4.98519 -8.61706 -0 -82.0004 -0 -0.0186417 -3.06723 -0.152809 -0.0455874 -6.13441 -0.307281 -0.0455873 -6.13439 -0.307281 1.19382e-007 17.9984 1.35993e-006 18.589 8.9091 3.75293 -15.833 14.1707 3.82501 -67.5995 -8.62296 -46.9262 -12.9745 36.5754 17.1217 -46.7303 -7.08255 14.0079 2.37136e-006 -1.84685e-006 -1.51599e-006 -2.37136e-006 1.84685e-006 1.51599e-006 9.54166e-015 2.78299e-015 1.59028e-015 3.18055e-015 4.96962e-016 2.38542e-015 2.37136e-006 -1.84685e-006 -1.51599e-006 -2.37136e-006 1.84685e-006 1.51599e-006 6.36111e-015 8.64713e-015 1.39149e-015 2.37136e-006 -1.84685e-006 -1.51599e-006 -2.37136e-006 1.84685e-006 1.51599e-006 6.36111e-015 8.64713e-015 1.39149e-015 3.18055e-015 4.96962e-016 2.38542e-015 2.37136e-006 -1.84685e-006 -1.51599e-006 -2.37136e-006 1.84685e-006 1.51599e-006 6.36111e-015 8.64713e-015 1.39149e-015 2.37136e-006 -1.84685e-006 -1.51599e-006 -2.37136e-006 1.84685e-006 1.51599e-006 6.36111e-015 8.64713e-015 1.39149e-015 15.8298 14.1703 -3.8281 67.7408 -8.47119 47.6778 11.346 36.7433 -17.2084 46.7422 -6.4809 -14.4197 4.86712e-007 4.2019e-006 -8.80382e-007 -9.54166e-015 2.48978e-014 -1.41137e-014 2.34431e-006 1.85759e-006 -1.51929e-006 -5.94843e-033 3.42904e-015 9.93923e-017 4.86712e-007 4.2019e-006 -8.80382e-007 -6.36111e-015 2.61899e-014 -1.42131e-014 2.34431e-006 1.85759e-006 -1.51929e-006 4.86712e-007 4.2019e-006 -8.80382e-007 -6.36111e-015 2.61899e-014 -1.42131e-014 2.34431e-006 1.85759e-006 -1.51929e-006 -5.94843e-033 3.42904e-015 9.93923e-017 4.86712e-007 4.2019e-006 -8.80382e-007 -6.36111e-015 2.61899e-014 -1.42131e-014 2.34431e-006 1.85759e-006 -1.51929e-006 4.86712e-007 4.2019e-006 -8.80382e-007 -6.36111e-015 2.61899e-014 -1.42131e-014 2.34431e-006 1.85759e-006 -1.51929e-006 18.3228 -17.7919 51.7137 2.00261 44.7072 0.795609 5.88236 20.8831 -1.71704 -18.3263 -17.7894 -51.7178 -2.0052 44.7053 -0.798238 -5.8858 20.8839 1.71418 
-0.0029167 5.39055 -8.60249 -0 -82.0004 -0 -0.0171298 -3.35957 -0.152728 -0.0433604 -6.71907 -0.30726 -0.0433605 -6.71905 -0.307259 -4.61525e-008 17.9984 8.58691e-008 18.3412 8.90239 3.70313 -15.3881 15.7282 5.11741 -68.1423 -7.94596 -47.1743 -13.385 36.591 17.0385 -46.7303 -7.08254 14.0079 1.18692e-006 -9.21477e-007 -7.59687e-007 1.18692e-006 -9.21477e-007 -7.59687e-007 1.18692e-006 -9.21477e-007 -7.59687e-007 -3.18055e-015 -2.18663e-015 -1.98785e-016 1.18692e-006 -9.21477e-007 -7.59687e-007 1.18692e-006 -9.21477e-007 -7.59687e-007 1.18692e-006 -9.21477e-007 -7.59687e-007 1.18692e-006 -9.21477e-007 -7.59687e-007 1.18692e-006 -9.21477e-007 -7.59687e-007 1.18692e-006 -9.21477e-007 -7.59687e-007 -3.18055e-015 -2.18663e-015 -1.98785e-016 1.18692e-006 -9.21477e-007 -7.59687e-007 1.18692e-006 -9.21477e-007 -7.59687e-007 1.18692e-006 -9.21477e-007 -7.59687e-007 1.18692e-006 -9.21477e-007 -7.59687e-007 1.18692e-006 -9.21477e-007 -7.59687e-007 1.18692e-006 -9.21477e-007 -7.59687e-007 15.3496 15.7033 -5.16669 68.2931 -7.77619 47.9265 11.7674 36.7482 -17.1209 46.7422 -6.4809 -14.4197 2.34736e-006 1.85272e-006 -1.52305e-006 3.18055e-015 -1.28216e-014 3.67752e-015 -3.18055e-015 -2.11706e-014 1.78906e-015 -3.50009e-032 -6.95746e-016 -2.88238e-015 2.34736e-006 1.85272e-006 -1.52305e-006 -3.18055e-015 -1.03865e-014 -1.49089e-015 -3.18055e-015 -2.00773e-014 2.08724e-015 2.34736e-006 1.85272e-006 -1.52305e-006 -3.18055e-015 -1.03865e-014 -1.49089e-015 -3.18055e-015 -2.00773e-014 2.08724e-015 -3.50009e-032 -6.95746e-016 -2.88238e-015 2.34736e-006 1.85272e-006 -1.52305e-006 -3.18055e-015 -1.03865e-014 -1.49089e-015 -3.18055e-015 -2.00773e-014 2.08724e-015 2.34736e-006 1.85272e-006 -1.52305e-006 -3.18055e-015 -1.03865e-014 -1.49089e-015 -3.18055e-015 -2.00773e-014 2.08724e-015 17.8622 -17.5505 50.564 2.00329 44.717 0.800487 4.99331 20.8471 -0.771967 -17.6097 -17.7624 -49.9243 -2.00676 44.7288 -0.808784 -4.49721 20.8926 0.0903435 
-0.00569644 5.79613 -8.58724 -0 -82.0004 -0 -0.0156105 -3.65285 -0.152835 -0.0411336 -7.30563 -0.307611 -0.0411336 -7.30564 -0.307611 1.09412e-006 17.9993 5.03171e-007 18.0934 8.89587 3.65328 -14.9758 17.298 6.41013 -68.6815 -7.26649 -47.4156 -13.7956 36.6071 16.9553 -46.7303 -7.08254 14.0079 -3.64977e-006 9.64589e-007 6.46272e-007 -5.4829e-031 -1.58034e-014 -1.98785e-015 6.36111e-015 -7.7526e-015 -1.98785e-015 -3.18055e-015 1.05356e-014 1.39149e-015 -3.64977e-006 9.64589e-007 6.46272e-007 9.54166e-015 -9.74045e-015 -2.98177e-015 6.36111e-015 -3.47873e-015 1.98785e-016 -3.64977e-006 9.64589e-007 6.46272e-007 9.54166e-015 -9.74045e-015 -2.98177e-015 6.36111e-015 -3.47873e-015 1.98785e-016 -3.18055e-015 1.05356e-014 1.39149e-015 -3.64977e-006 9.64589e-007 6.46272e-007 9.54166e-015 -9.74045e-015 -2.98177e-015 6.36111e-015 -3.47873e-015 1.98785e-016 -3.64977e-006 9.64589e-007 6.46272e-007 9.54166e-015 -9.74045e-015 -2.98177e-015 6.36111e-015 -3.47873e-015 1.98785e-016 14.9023 17.2498 -6.50515 68.8416 -7.0786 48.1681 12.1889 36.7535 -17.0335 46.7422 -6.48092 -14.4197 -1.17538e-006 -9.23488e-007 7.63597e-007 -1.17538e-006 -9.23488e-007 7.63597e-007 -1.17538e-006 -9.23488e-007 7.63597e-007 -3.18055e-015 7.90169e-015 -9.93923e-016 -1.17538e-006 -9.23488e-007 7.63597e-007 -1.17538e-006 -9.23488e-007 7.63597e-007 -1.17538e-006 -9.23488e-007 7.63597e-007 -1.17538e-006 -9.23488e-007 7.63597e-007 -1.17538e-006 -9.23488e-007 7.63597e-007 -1.17538e-006 -9.23488e-007 7.63597e-007 -3.18055e-015 7.90169e-015 -9.93923e-016 -1.17538e-006 -9.23488e-007 7.63597e-007 -1.17538e-006 -9.23488e-007 7.63597e-007 -1.17538e-006 -9.23488e-007 7.63597e-007 -1.17538e-006 -9.23488e-007 7.63597e-007 -1.17538e-006 -9.23488e-007 7.63597e-007 -1.17538e-006 -9.23488e-007 7.63597e-007 17.4056 -17.2997 49.417 2.00395 44.7255 0.805068 4.10508 20.7972 0.172965 -16.8914 -17.7133 -48.1289 -2.00816 44.7499 -0.818093 -3.10707 20.865 -1.53653 
-0.00814629 6.20186 -8.57132 -0 -82.0004 -0 -0.0141023 -3.94672 -0.153116 -0.0389452 -7.89338 -0.308309 -0.0389454 -7.89336 -0.308309 9.90204e-006 17.9985 -1.05522e-006 17.8455 8.88954 3.60339 -14.5968 18.8784 7.7041 -69.2171 -6.58463 -47.6502 -14.2063 36.6236 16.8723 -46.7303 -7.08257 14.0079 -5.47075e-007 4.21252e-006 9.71982e-007 -6.36111e-015 2.42517e-014 1.15295e-014 -9.54166e-015 2.06736e-014 1.49089e-014 3.18055e-015 4.07509e-015 7.95139e-016 -5.47075e-007 4.21252e-006 9.71982e-007 -5.57601e-030 2.43511e-014 1.31198e-014 -3.47078e-030 1.81888e-014 1.09332e-014 -5.47075e-007 4.21252e-006 9.71982e-007 -5.57601e-030 2.43511e-014 1.31198e-014 -3.47078e-030 1.81888e-014 1.09332e-014 3.18055e-015 4.07509e-015 7.95139e-016 -5.47075e-007 4.21252e-006 9.71982e-007 -5.57601e-030 2.43511e-014 1.31198e-014 -3.47078e-030 1.81888e-014 1.09332e-014 -5.47075e-007 4.21252e-006 9.71982e-007 -5.57601e-030 2.43511e-014 1.31198e-014 -3.47078e-030 1.81888e-014 1.09332e-014 14.4889 18.8078 -7.84432 69.3865 -6.37861 48.4028 12.6104 36.7594 -16.946 46.7422 -6.4809 -14.4197 6.63121e-007 -3.27468e-006 1.44453e-007 4.94364e-007 2.24318e-006 7.39351e-007 -4.94364e-007 -2.24318e-006 -7.39351e-007 3.18055e-015 -9.54166e-015 1.59028e-015 6.63121e-007 -3.27468e-006 1.44453e-007 4.94364e-007 2.24317e-006 7.39351e-007 -4.94364e-007 -2.24318e-006 -7.39351e-007 6.63121e-007 -3.27468e-006 1.44453e-007 4.94364e-007 2.24317e-006 7.39351e-007 -4.94364e-007 -2.24318e-006 -7.39351e-007 3.18055e-015 -9.54166e-015 1.59028e-015 6.63121e-007 -3.27468e-006 1.44453e-007 4.94364e-007 2.24317e-006 7.39351e-007 -4.94364e-007 -2.24318e-006 -7.39351e-007 6.63121e-007 -3.27468e-006 1.44453e-007 4.94364e-007 2.24317e-006 7.39351e-007 -4.94364e-007 -2.24318e-006 -7.39351e-007 16.9532 -17.0397 48.273 2.00451 44.7327 0.809483 3.21821 20.7336 1.11729 -16.1724 -17.6419 -46.333 -2.00938 44.7684 -0.82627 -1.71759 20.8013 -3.16429 
